<svg id="wave" style="transform:rotate(180deg); transition: 0.3s" viewBox="0 0 1440 490" version="1.1" xmlns="http://www.w3.org/2000/svg"><defs><linearGradient id="sw-gradient-0" x1="0" x2="0" y1="1" y2="0"><stop stop-color="rgba(166, 174, 221, 1)" offset="0%"></stop><stop stop-color="rgba(0, 34, 232, 1)" offset="100%"></stop></linearGradient></defs><path style="transform:translate(0, 0px); opacity:1" fill="url(#sw-gradient-0)" d="M0,343L80,351.2C160,359,320,376,480,359.3C640,343,800,294,960,277.7C1120,261,1280,278,1440,236.8C1600,196,1760,98,1920,98C2080,98,2240,196,2400,220.5C2560,245,2720,196,2880,171.5C3040,147,3200,147,3360,171.5C3520,196,3680,245,3840,269.5C4000,294,4160,294,4320,245C4480,196,4640,98,4800,114.3C4960,131,5120,261,5280,269.5C5440,278,5600,163,5760,106.2C5920,49,6080,49,6240,40.8C6400,33,6560,16,6720,65.3C6880,114,7040,229,7200,294C7360,359,7520,376,7680,392C7840,408,8000,425,8160,367.5C8320,310,8480,180,8640,106.2C8800,33,8960,16,9120,73.5C9280,131,9440,261,9600,261.3C9760,261,9920,131,10080,138.8C10240,147,10400,294,10560,326.7C10720,359,10880,278,11040,277.7C11200,278,11360,359,11440,400.2L11520,441L11520,490L11440,490C11360,490,11200,490,11040,490C10880,490,10720,490,10560,490C10400,490,10240,490,10080,490C9920,490,9760,490,9600,490C9440,490,9280,490,9120,490C8960,490,8800,490,8640,490C8480,490,8320,490,8160,490C8000,490,7840,490,7680,490C7520,490,7360,490,7200,490C7040,490,6880,490,6720,490C6560,490,6400,490,6240,490C6080,490,5920,490,5760,490C5600,490,5440,490,5280,490C5120,490,4960,490,4800,490C4640,490,4480,490,4320,490C4160,490,4000,490,3840,490C3680,490,3520,490,3360,490C3200,490,3040,490,2880,490C2720,490,2560,490,2400,490C2240,490,2080,490,1920,490C1760,490,1600,490,1440,490C1280,490,1120,490,960,490C800,490,640,490,480,490C320,490,160,490,80,490L0,490Z"></path><defs><linearGradient id="sw-gradient-1" x1="0" x2="0" y1="1" y2="0"><stop stop-color="rgba(166, 174, 221, 1)" offset="0%"></stop><stop stop-color="rgba(0, 34, 232, 1)" offset="100%"></stop></linearGradient></defs><path style="transform:translate(0, 50px); opacity:0.9" fill="url(#sw-gradient-1)" d="M0,294L80,277.7C160,261,320,229,480,253.2C640,278,800,359,960,375.7C1120,392,1280,343,1440,318.5C1600,294,1760,294,1920,302.2C2080,310,2240,327,2400,310.3C2560,294,2720,245,2880,236.8C3040,229,3200,261,3360,269.5C3520,278,3680,261,3840,212.3C4000,163,4160,82,4320,57.2C4480,33,4640,65,4800,89.8C4960,114,5120,131,5280,155.2C5440,180,5600,212,5760,228.7C5920,245,6080,245,6240,220.5C6400,196,6560,147,6720,179.7C6880,212,7040,327,7200,375.7C7360,425,7520,408,7680,351.2C7840,294,8000,196,8160,171.5C8320,147,8480,196,8640,253.2C8800,310,8960,376,9120,334.8C9280,294,9440,147,9600,81.7C9760,16,9920,33,10080,32.7C10240,33,10400,16,10560,73.5C10720,131,10880,261,11040,277.7C11200,294,11360,196,11440,147L11520,98L11520,490L11440,490C11360,490,11200,490,11040,490C10880,490,10720,490,10560,490C10400,490,10240,490,10080,490C9920,490,9760,490,9600,490C9440,490,9280,490,9120,490C8960,490,8800,490,8640,490C8480,490,8320,490,8160,490C8000,490,7840,490,7680,490C7520,490,7360,490,7200,490C7040,490,6880,490,6720,490C6560,490,6400,490,6240,490C6080,490,5920,490,5760,490C5600,490,5440,490,5280,490C5120,490,4960,490,4800,490C4640,490,4480,490,4320,490C4160,490,4000,490,3840,490C3680,490,3520,490,3360,490C3200,490,3040,490,2880,490C2720,490,2560,490,2400,490C2240,490,2080,490,1920,490C1760,490,1600,490,1440,490C1280,490,1120,490,960,490C800,490,640,490,480,490C320,490,160,490,80,490L0,490Z"></path><defs><linearGradient id="sw-gradient-2" x1="0" x2="0" y1="1" y2="0"><stop stop-color="rgba(166, 174, 221, 1)" offset="0%"></stop><stop stop-color="rgba(0, 34, 232, 1)" offset="100%"></stop></linearGradient></defs><path style="transform:translate(0, 100px); opacity:0.8" fill="url(#sw-gradient-2)" d="M0,294L80,245C160,196,320,98,480,73.5C640,49,800,98,960,138.8C1120,180,1280,212,1440,253.2C1600,294,1760,343,1920,302.2C2080,261,2240,131,2400,122.5C2560,114,2720,229,2880,245C3040,261,3200,180,3360,196C3520,212,3680,327,3840,326.7C4000,327,4160,212,4320,212.3C4480,212,4640,327,4800,359.3C4960,392,5120,343,5280,269.5C5440,196,5600,98,5760,73.5C5920,49,6080,98,6240,98C6400,98,6560,49,6720,32.7C6880,16,7040,33,7200,98C7360,163,7520,278,7680,334.8C7840,392,8000,392,8160,326.7C8320,261,8480,131,8640,81.7C8800,33,8960,65,9120,106.2C9280,147,9440,196,9600,245C9760,294,9920,343,10080,351.2C10240,359,10400,327,10560,277.7C10720,229,10880,163,11040,171.5C11200,180,11360,261,11440,302.2L11520,343L11520,490L11440,490C11360,490,11200,490,11040,490C10880,490,10720,490,10560,490C10400,490,10240,490,10080,490C9920,490,9760,490,9600,490C9440,490,9280,490,9120,490C8960,490,8800,490,8640,490C8480,490,8320,490,8160,490C8000,490,7840,490,7680,490C7520,490,7360,490,7200,490C7040,490,6880,490,6720,490C6560,490,6400,490,6240,490C6080,490,5920,490,5760,490C5600,490,5440,490,5280,490C5120,490,4960,490,4800,490C4640,490,4480,490,4320,490C4160,490,4000,490,3840,490C3680,490,3520,490,3360,490C3200,490,3040,490,2880,490C2720,490,2560,490,2400,490C2240,490,2080,490,1920,490C1760,490,1600,490,1440,490C1280,490,1120,490,960,490C800,490,640,490,480,490C320,490,160,490,80,490L0,490Z"></path></svg>