<svg version="1.0" xmlns="http://www.w3.org/2000/svg"
 width="100%" height="100%" viewBox="0 0 300 300"
 preserveAspectRatio="xMidYMid meet">
<g transform="translate(0.000000,300.000000) scale(0.100000,-0.100000)"
fill="#fccb08" stroke="none">
<path d="M502 2010 c-78 -21 -150 -55 -197 -96 -21 -18 -15 -15 20 7 53 35
150 79 175 79 8 0 -10 -11 -41 -24 -54 -22 -129 -64 -129 -71 0 -2 33 11 73
30 122 58 247 63 394 14 125 -41 241 -141 297 -255 15 -30 31 -52 36 -49 13 8
25 -77 23 -166 0 -60 -7 -90 -32 -149 -17 -41 -29 -76 -26 -78 6 -6 44 78 45
96 0 6 4 12 10 12 5 0 9 -10 7 -22 -2 -19 4 -24 31 -26 33 -3 34 -3 27 27 -6
28 -4 31 19 31 25 0 28 -4 30 -40 1 -9 13 -16 29 -18 23 -3 27 0 27 20 0 13
-5 29 -11 35 -8 8 -8 13 0 17 6 4 11 18 11 32 0 31 -37 47 -100 42 l-45 -3 -2
70 c-7 187 -118 360 -285 443 -127 62 -254 76 -386 42z m247 -5 c77 -18 181
-72 236 -121 l40 -36 -52 36 c-114 80 -229 117 -373 118 -59 0 -76 3 -55 8 51
13 137 10 204 -5z m455 -597 c3 -15 -1 -30 -14 -43 -20 -19 -20 -19 -20 0 0
29 11 65 20 65 4 0 10 -10 14 -22z m66 2 c0 -5 -13 -10 -30 -10 -16 0 -30 5
-30 10 0 6 14 10 30 10 17 0 30 -4 30 -10z"/>
<path d="M1686 1927 c-9 -23 -15 -56 -15 -72 1 -21 3 -24 6 -10 21 96 38 102
52 19 l9 -49 1 41 c1 35 -22 114 -33 114 -2 0 -11 -19 -20 -43z"/>
<path d="M1550 1905 c0 -8 20 -28 45 -43 31 -18 54 -44 76 -82 17 -30 27 -46
24 -35 -4 11 -10 29 -12 40 -5 20 -5 20 9 1 15 -19 16 -19 26 1 9 16 8 24 -4
34 -13 11 -14 9 -9 -17 l6 -29 -15 25 c-9 14 -15 19 -16 11 0 -8 -16 4 -36 27
-19 23 -41 42 -49 42 -7 0 -12 8 -11 17 0 10 -7 19 -16 21 -11 2 -18 -3 -18
-13z"/>
<path d="M1830 1902 c0 -10 -12 -25 -26 -32 -31 -17 -54 -49 -83 -114 -27 -63
-16 -52 24 22 18 33 44 66 65 79 51 33 61 43 55 54 -11 16 -35 10 -35 -9z"/>
<path d="M1500 1870 c0 -11 17 -39 39 -63 21 -23 46 -57 55 -74 18 -35 30 -45
19 -15 -6 15 -5 15 10 3 15 -12 17 -12 12 2 -4 8 -2 18 4 22 6 3 11 -1 11 -11
0 -10 3 -15 6 -11 3 3 1 22 -6 41 -14 43 -62 86 -97 86 -16 0 -27 7 -30 20 -7
26 -23 26 -23 0z m97 -49 c34 -22 51 -57 34 -74 -7 -7 -16 -5 -31 8 -11 10
-18 20 -15 23 3 3 14 -3 25 -13 11 -10 20 -14 20 -8 0 5 -17 19 -39 31 -21 12
-44 29 -51 37 -19 23 17 20 57 -4z"/>
<path d="M1892 1874 c2 -13 -6 -20 -37 -26 -50 -11 -82 -41 -96 -91 -13 -51
-6 -59 9 -9 14 46 46 78 87 87 l30 6 -28 -23 c-15 -13 -40 -33 -55 -46 l-27
-23 30 18 c22 14 27 15 20 3 -5 -8 -19 -23 -32 -33 -13 -10 -23 -24 -23 -30 0
-7 7 -3 15 7 15 20 15 20 15 0 0 -14 5 -11 16 12 9 18 36 56 60 84 44 52 50
70 25 78 -7 2 -11 -3 -9 -14z"/>
<path d="M215 1783 c-42 -58 -73 -135 -90 -228 -13 -69 -13 -69 -16 -25 -2 39
-3 40 -6 12 -6 -43 32 -193 68 -268 55 -118 163 -210 297 -255 151 -51 407 -8
489 83 10 11 -7 4 -41 -16 -63 -38 -148 -60 -270 -71 -69 -6 -78 -5 -73 8 4
11 -3 18 -26 23 -106 22 -285 144 -345 234 -89 133 -80 334 22 493 44 69 39
74 -9 10z m158 -674 c33 -21 87 -49 119 -60 64 -24 73 -39 11 -19 -106 35
-212 102 -254 162 l-23 33 43 -38 c24 -21 70 -56 104 -78z"/>
<path d="M531 1783 c-13 -21 -26 -58 -29 -83 -3 -25 -8 -47 -12 -50 -4 -3 -12
-14 -18 -25 -11 -20 -11 -20 -18 0 -4 11 -14 30 -22 43 -34 53 -59 -41 -27
-102 11 -21 14 -50 10 -110 -2 -44 -2 -73 1 -64 3 10 21 19 45 23 63 11 133
95 79 95 -30 0 -83 -24 -100 -46 -13 -16 -11 -16 20 3 40 23 90 37 90 25 0
-13 -43 -49 -65 -54 -11 -3 -28 -9 -38 -13 -10 -4 -17 -4 -16 1 1 5 -1 17 -5
26 -5 11 0 30 13 52 21 34 21 35 2 41 -11 3 -20 14 -19 23 0 9 -6 31 -13 49
-7 18 -10 36 -5 40 12 12 44 -34 51 -71 5 -26 11 -32 28 -31 12 1 23 9 25 18
4 20 -9 22 -27 5 -10 -11 -12 -8 -9 12 3 23 8 25 64 30 41 3 69 11 83 24 31
28 27 46 -11 45 -24 -1 -27 -3 -10 -6 32 -6 27 -29 -9 -42 -37 -13 -79 -14
-79 -3 0 14 23 32 42 32 10 0 18 6 19 13 0 6 4 34 8 62 14 83 -7 100 -48 38z
m39 -17 c0 -51 -16 -86 -40 -86 -17 0 -19 4 -14 28 10 40 35 92 45 92 5 0 9
-15 9 -34z"/>
<path d="M172 1778 c-26 -41 -62 -150 -61 -180 0 -13 7 4 15 36 8 32 28 85 44
117 32 64 33 78 2 27z"/>
<path d="M703 1759 c-18 -5 -33 -11 -33 -13 0 -2 27 -3 60 -2 54 1 62 -2 89
-29 l29 -30 -102 -243 c-56 -134 -110 -252 -119 -262 -9 -11 -26 -20 -37 -20
-11 0 -20 -3 -20 -8 0 -4 36 -7 80 -7 77 0 101 7 60 18 -26 7 -25 28 9 112
l29 70 113 3 114 2 35 -97 c64 -178 149 -272 254 -281 29 -2 62 1 72 7 16 9
13 10 -19 11 -55 0 -97 21 -141 70 -51 56 -90 143 -180 393 -73 204 -103 261
-152 293 -30 20 -98 26 -141 13z m216 -242 c23 -67 40 -126 38 -131 -2 -9
-197 -15 -197 -6 0 3 15 41 33 85 19 44 42 104 51 133 10 28 21 50 26 47 5 -3
27 -60 49 -128z"/>
<path d="M1665 1693 c-69 -14 -67 -13 -55 -28 16 -20 41 -19 34 0 -5 12 6 15
65 15 65 0 91 -10 59 -23 -9 -4 -8 -6 2 -6 20 -1 46 16 38 24 -17 17 -99 28
-143 18z"/>
<path d="M230 1571 c0 -47 18 -83 58 -118 36 -32 36 -33 12 -34 -14 -1 -32 -3
-40 -4 -8 -1 -27 -3 -42 -4 -38 -2 -35 -18 8 -38 33 -16 38 -16 82 -1 46 17
47 17 72 -5 l25 -22 -19 22 c-14 17 -17 32 -13 58 5 30 3 35 -14 35 -22 0 -24
-11 -7 -28 6 -6 8 -15 4 -19 -12 -12 -46 36 -46 66 0 37 -41 115 -62 119 -14
3 -18 -3 -18 -27z m37 -3 c9 -12 33 -87 33 -102 0 -4 -8 1 -19 11 -16 16 -41
73 -41 94 0 13 16 11 27 -3z m57 -173 c-4 -9 -11 -15 -18 -14 -6 1 -18 -1 -27
-5 -8 -4 -29 -1 -45 6 -28 12 -28 12 31 18 33 4 61 7 62 8 1 1 0 -5 -3 -13z"/>
<path d="M1372 1450 c-56 -24 -35 -65 39 -75 27 -4 49 -11 49 -17 0 -7 -20 -8
-55 -3 -55 6 -69 -1 -41 -24 21 -18 98 -23 126 -9 38 21 38 53 -1 67 -18 6
-45 11 -60 11 -16 0 -29 4 -29 9 0 18 21 23 50 11 16 -7 37 -9 47 -6 15 6 15
8 1 22 -19 19 -94 28 -126 14z"/>
<path d="M1540 1388 l0 -74 75 0 c72 0 75 1 75 24 0 21 -4 23 -42 20 l-43 -3
-1 50 c-1 49 -2 50 -32 53 l-32 3 0 -73z"/>
<path d="M1745 1390 c-19 -38 -35 -72 -35 -75 0 -13 58 -4 64 10 3 9 18 15 40
15 21 0 36 -6 40 -15 5 -15 56 -22 56 -7 0 4 -16 38 -36 75 -31 59 -39 67 -65
67 -26 0 -32 -7 -64 -70z m81 5 c1 -18 -3 -25 -17 -25 -13 0 -17 5 -12 18 4 9
11 20 17 24 6 4 11 8 11 8 0 0 1 -11 1 -25z"/>
<path d="M1930 1385 l0 -75 30 0 c28 0 30 3 30 38 l1 37 30 -37 c20 -25 39
-38 55 -38 23 0 24 2 24 75 l0 75 -30 0 c-28 0 -30 -3 -30 -35 0 -26 3 -33 15
-29 11 5 15 -1 15 -20 0 -30 -17 -35 -28 -8 -4 9 -18 34 -32 54 -19 28 -32 38
-52 38 l-28 0 0 -75z m59 21 c8 -10 8 -16 -2 -25 -16 -13 -27 -5 -27 21 0 21
13 23 29 4z"/>
<path d="M2170 1385 l0 -75 62 6 c74 7 96 17 104 49 14 58 -32 95 -121 95
l-45 0 0 -75z m103 13 c8 -12 7 -21 -2 -32 -23 -28 -41 -19 -41 20 0 28 4 35
16 32 9 -2 22 -10 27 -20z"/>
<path d="M2360 1388 l0 -73 75 -2 c68 -2 75 0 75 18 0 16 -7 19 -45 19 -25 0
-45 5 -45 10 0 6 20 10 45 10 33 0 45 4 45 15 0 11 -12 15 -45 15 -25 0 -45 5
-45 10 0 6 20 10 45 10 38 0 45 3 45 20 0 18 -7 20 -75 20 l-75 0 0 -72z m47
12 c9 -11 8 -20 -3 -34 -13 -18 -14 -17 -14 19 0 21 1 36 3 34 1 -2 8 -11 14
-19z"/>
<path d="M2532 1453 c2 -5 19 -39 38 -76 32 -62 37 -68 63 -65 24 3 35 15 68
76 l41 72 -35 0 c-31 0 -36 -4 -51 -40 -9 -22 -19 -40 -23 -40 -5 0 -16 18
-25 40 -14 35 -21 40 -48 40 -17 0 -30 -3 -28 -7z"/>
<path d="M459 1361 c-26 -48 -39 -52 -39 -14 0 26 -1 26 -14 7 -13 -16 -13
-20 0 -27 8 -4 14 -23 14 -42 0 -19 4 -36 9 -39 5 -3 20 -31 35 -62 15 -31 29
-54 32 -51 3 2 -5 25 -17 49 l-21 45 26 40 c21 32 27 51 24 84 -4 56 -21 59
-49 10z m41 -6 c0 -14 -9 -44 -21 -67 -16 -31 -23 -38 -30 -27 -14 23 -10 47
14 84 26 41 37 44 37 10z"/>
</g>
</svg>
